<mxfile host="app.diagrams.net" modified="2023-06-07T07:56:49.089Z" agent="Mozilla/5.0 (Macintosh; Intel Mac OS X 10_15_7) AppleWebKit/605.1.15 (KHTML, like Gecko) Version/16.4 Safari/605.1.15" etag="EvdBXs_hHDQ4NJzIkpb2" version="21.3.7">
  <diagram name="Seite-1" id="n-zzxeImCiMwwyzZX6F9">
    <mxGraphModel dx="1026" dy="614" grid="1" gridSize="10" guides="1" tooltips="1" connect="1" arrows="1" fold="1" page="1" pageScale="1" pageWidth="827" pageHeight="1169" math="0" shadow="0">
      <root>
        <mxCell id="0" />
        <mxCell id="1" parent="0" />
        <mxCell id="4hPN_xKUDlY_Exep0QY8-1" value="Span 0x12b2" style="rounded=1;whiteSpace=wrap;html=1;fillColor=#dae8fc;strokeColor=#6c8ebf;" vertex="1" parent="1">
          <mxGeometry x="40" y="10" width="780" height="40" as="geometry" />
        </mxCell>
        <mxCell id="4hPN_xKUDlY_Exep0QY8-2" value="Span 0x1ee4" style="rounded=1;whiteSpace=wrap;html=1;fillColor=#dae8fc;strokeColor=#6c8ebf;" vertex="1" parent="1">
          <mxGeometry x="80" y="90" width="280" height="40" as="geometry" />
        </mxCell>
        <mxCell id="4hPN_xKUDlY_Exep0QY8-3" value="Span 0x4a82" style="rounded=1;whiteSpace=wrap;html=1;fillColor=#dae8fc;strokeColor=#6c8ebf;" vertex="1" parent="1">
          <mxGeometry x="80" y="170" width="200" height="40" as="geometry" />
        </mxCell>
        <mxCell id="4hPN_xKUDlY_Exep0QY8-4" value="Span 0xcc3d" style="rounded=1;whiteSpace=wrap;html=1;fillColor=#dae8fc;strokeColor=#6c8ebf;" vertex="1" parent="1">
          <mxGeometry x="440" y="90" width="320" height="40" as="geometry" />
        </mxCell>
        <mxCell id="4hPN_xKUDlY_Exep0QY8-5" value="" style="endArrow=open;html=1;rounded=0;endFill=0;entryX=0;entryY=0.5;entryDx=0;entryDy=0;exitX=0.026;exitY=1.037;exitDx=0;exitDy=0;exitPerimeter=0;" edge="1" parent="1" source="4hPN_xKUDlY_Exep0QY8-1" target="4hPN_xKUDlY_Exep0QY8-2">
          <mxGeometry width="50" height="50" relative="1" as="geometry">
            <mxPoint x="50" y="60" as="sourcePoint" />
            <mxPoint x="50" y="60" as="targetPoint" />
            <Array as="points">
              <mxPoint x="60" y="110" />
            </Array>
          </mxGeometry>
        </mxCell>
        <mxCell id="4hPN_xKUDlY_Exep0QY8-6" value="" style="endArrow=open;html=1;rounded=0;endFill=0;entryX=0;entryY=0.5;entryDx=0;entryDy=0;exitX=0.026;exitY=1.037;exitDx=0;exitDy=0;exitPerimeter=0;" edge="1" parent="1" target="4hPN_xKUDlY_Exep0QY8-3">
          <mxGeometry width="50" height="50" relative="1" as="geometry">
            <mxPoint x="60" y="100" as="sourcePoint" />
            <mxPoint x="80" y="159" as="targetPoint" />
            <Array as="points">
              <mxPoint x="60" y="190" />
            </Array>
          </mxGeometry>
        </mxCell>
        <mxCell id="4hPN_xKUDlY_Exep0QY8-7" value="" style="endArrow=open;html=1;rounded=0;endFill=0;entryX=0;entryY=0.5;entryDx=0;entryDy=0;exitX=0.026;exitY=1.037;exitDx=0;exitDy=0;exitPerimeter=0;" edge="1" parent="1">
          <mxGeometry width="50" height="50" relative="1" as="geometry">
            <mxPoint x="420" y="50" as="sourcePoint" />
            <mxPoint x="440" y="109" as="targetPoint" />
            <Array as="points">
              <mxPoint x="420" y="109" />
            </Array>
          </mxGeometry>
        </mxCell>
        <mxCell id="4hPN_xKUDlY_Exep0QY8-8" value="&lt;font style=&quot;font-size: 8px;&quot;&gt;create child span&lt;/font&gt;" style="text;html=1;strokeColor=none;fillColor=none;align=center;verticalAlign=middle;whiteSpace=wrap;rounded=0;fontSize=8;fontFamily=Helvetica;rotation=270;" vertex="1" parent="1">
          <mxGeometry x="-5" y="110" width="110" height="20" as="geometry" />
        </mxCell>
        <mxCell id="4hPN_xKUDlY_Exep0QY8-9" value="&lt;font style=&quot;font-size: 8px;&quot;&gt;create child span&lt;/font&gt;" style="text;html=1;strokeColor=none;fillColor=none;align=center;verticalAlign=middle;whiteSpace=wrap;rounded=0;fontSize=8;fontFamily=Helvetica;rotation=270;" vertex="1" parent="1">
          <mxGeometry x="354" y="75" width="110" height="20" as="geometry" />
        </mxCell>
        <mxCell id="4hPN_xKUDlY_Exep0QY8-10" value="" style="endArrow=open;html=1;rounded=0;dashed=1;endFill=0;strokeColor=#999999;entryX=0.693;entryY=1;entryDx=0;entryDy=0;entryPerimeter=0;exitX=0.438;exitY=0.002;exitDx=0;exitDy=0;exitPerimeter=0;" edge="1" parent="1" source="4hPN_xKUDlY_Exep0QY8-4" target="4hPN_xKUDlY_Exep0QY8-1">
          <mxGeometry width="50" height="50" relative="1" as="geometry">
            <mxPoint x="599.6600000000001" y="90" as="sourcePoint" />
            <mxPoint x="580" y="70" as="targetPoint" />
          </mxGeometry>
        </mxCell>
        <mxCell id="4hPN_xKUDlY_Exep0QY8-11" value="parent-child-relation" style="text;html=1;strokeColor=none;fillColor=none;align=center;verticalAlign=middle;whiteSpace=wrap;rounded=0;fontColor=#999999;fontSize=8;" vertex="1" parent="1">
          <mxGeometry x="578" y="56" width="80" height="30" as="geometry" />
        </mxCell>
        <mxCell id="4hPN_xKUDlY_Exep0QY8-12" value="A child span can &amp;nbsp;exist on the same thread as the parent span (0-1 possible child spans) or on another thread (0-n possible child spans)" style="text;html=1;strokeColor=none;fillColor=none;align=left;verticalAlign=top;whiteSpace=wrap;rounded=0;fontColor=#999999;fontSize=8;" vertex="1" parent="1">
          <mxGeometry x="300" y="154" width="80" height="30" as="geometry" />
        </mxCell>
        <mxCell id="4hPN_xKUDlY_Exep0QY8-14" value="" style="endArrow=none;html=1;rounded=0;dashed=1;endFill=0;strokeColor=#999999;entryX=1;entryY=0.5;entryDx=0;entryDy=0;" edge="1" parent="1" target="4hPN_xKUDlY_Exep0QY8-3">
          <mxGeometry width="50" height="50" relative="1" as="geometry">
            <mxPoint x="300" y="190" as="sourcePoint" />
            <mxPoint x="430" y="200" as="targetPoint" />
          </mxGeometry>
        </mxCell>
        <mxCell id="4hPN_xKUDlY_Exep0QY8-15" value="A span provides the following context metadata:&lt;br&gt;- span id&lt;br&gt;- span type&lt;br&gt;- parent span id&lt;br&gt;- thread name&lt;br&gt;- start time" style="text;html=1;strokeColor=none;fillColor=none;align=left;verticalAlign=top;whiteSpace=wrap;rounded=0;fontColor=#999999;fontSize=8;" vertex="1" parent="1">
          <mxGeometry x="464" y="153" width="120" height="70" as="geometry" />
        </mxCell>
        <mxCell id="4hPN_xKUDlY_Exep0QY8-16" value="" style="endArrow=none;html=1;rounded=0;dashed=1;endFill=0;strokeColor=#999999;entryX=0.201;entryY=1.081;entryDx=0;entryDy=0;entryPerimeter=0;" edge="1" parent="1" target="4hPN_xKUDlY_Exep0QY8-4">
          <mxGeometry width="50" height="50" relative="1" as="geometry">
            <mxPoint x="504" y="160" as="sourcePoint" />
            <mxPoint x="290" y="200" as="targetPoint" />
          </mxGeometry>
        </mxCell>
        <mxCell id="4hPN_xKUDlY_Exep0QY8-17" value="A span provides the following tracing metadata:&lt;br&gt;- span id&lt;br&gt;- span type&lt;br&gt;- parent span id&lt;br&gt;- start time&lt;br&gt;- end time" style="text;html=1;strokeColor=none;fillColor=none;align=left;verticalAlign=top;whiteSpace=wrap;rounded=0;fontColor=#999999;fontSize=8;" vertex="1" parent="1">
          <mxGeometry x="658" y="150" width="120" height="70" as="geometry" />
        </mxCell>
        <mxCell id="4hPN_xKUDlY_Exep0QY8-18" value="" style="endArrow=none;html=1;rounded=0;dashed=1;endFill=0;strokeColor=#999999;entryX=0.201;entryY=1.081;entryDx=0;entryDy=0;entryPerimeter=0;" edge="1" parent="1">
          <mxGeometry width="50" height="50" relative="1" as="geometry">
            <mxPoint x="698" y="157" as="sourcePoint" />
            <mxPoint x="698" y="130" as="targetPoint" />
          </mxGeometry>
        </mxCell>
        <mxCell id="4hPN_xKUDlY_Exep0QY8-19" value="A span is started once it is created and can be stopped programmatically. Since start and end time of a span are stored it is easy to get the duration of a span" style="text;html=1;strokeColor=none;fillColor=none;align=left;verticalAlign=top;whiteSpace=wrap;rounded=0;fontColor=#999999;fontSize=8;" vertex="1" parent="1">
          <mxGeometry x="80" y="223" width="200" height="37" as="geometry" />
        </mxCell>
        <mxCell id="4hPN_xKUDlY_Exep0QY8-20" value="" style="endArrow=none;html=1;rounded=0;endFill=0;strokeColor=#999999;" edge="1" parent="1">
          <mxGeometry width="50" height="50" relative="1" as="geometry">
            <mxPoint x="80" y="227" as="sourcePoint" />
            <mxPoint x="80" y="217" as="targetPoint" />
          </mxGeometry>
        </mxCell>
        <mxCell id="4hPN_xKUDlY_Exep0QY8-21" value="" style="endArrow=none;html=1;rounded=0;endFill=0;strokeColor=#999999;" edge="1" parent="1">
          <mxGeometry width="50" height="50" relative="1" as="geometry">
            <mxPoint x="280" y="227" as="sourcePoint" />
            <mxPoint x="280" y="217" as="targetPoint" />
          </mxGeometry>
        </mxCell>
        <mxCell id="4hPN_xKUDlY_Exep0QY8-22" value="" style="endArrow=none;html=1;rounded=0;endFill=0;strokeColor=#999999;" edge="1" parent="1">
          <mxGeometry width="50" height="50" relative="1" as="geometry">
            <mxPoint x="80" y="222" as="sourcePoint" />
            <mxPoint x="280" y="222" as="targetPoint" />
          </mxGeometry>
        </mxCell>
      </root>
    </mxGraphModel>
  </diagram>
</mxfile>
